<mxfile host="app.diagrams.net" modified="2023-01-03T23:49:34.858Z" agent="5.0 (X11)" etag="8noQywbbRN4Jpyo9dGjk" version="20.7.3" type="github">
  <diagram id="07fea595-8f29-1299-0266-81d95cde20df" name="Page-1">
    <mxGraphModel dx="1036" dy="705" grid="1" gridSize="10" guides="1" tooltips="1" connect="1" arrows="1" fold="1" page="1" pageScale="1" pageWidth="1169" pageHeight="827" background="#ffffff" math="0" shadow="0">
      <root>
        <mxCell id="0" />
        <mxCell id="1" parent="0" />
        <mxCell id="180" value="March&lt;span style=&quot;white-space: pre;&quot;&gt; &lt;/span&gt;" style="swimlane;whiteSpace=wrap;fillColor=none;swimlaneFillColor=#BAC8D3;fontColor=#2F5B7C;fontFamily=Tahoma;html=1;strokeColor=none;opacity=50;startSize=23;connectable=0;allowArrows=0;movable=0;resizable=0;deletable=0;container=0;" parent="1" vertex="1">
          <mxGeometry x="797.5" y="80.5" width="227" height="758" as="geometry">
            <mxRectangle x="664.5" y="88.5" width="80" height="23" as="alternateBounds" />
          </mxGeometry>
        </mxCell>
        <mxCell id="8oFMMmD0dK8GUsLk8yxT-230" value="Adjectives Reborn" style="rounded=0;whiteSpace=wrap;html=1;strokeColor=#2F5B7C;fillColor=#2F5B7C;fontColor=#FCFCFC;" parent="180" vertex="1">
          <mxGeometry x="53.5" y="379" width="120" height="56" as="geometry" />
        </mxCell>
        <mxCell id="7W-krHmOCczphmB0Bt9z-229" value="Speed tweeking" style="rounded=0;whiteSpace=wrap;html=1;strokeColor=#2F5B7C;fillColor=#2F5B7C;fontColor=#FCFCFC;deletable=0;" parent="180" vertex="1">
          <mxGeometry x="12.5" y="282.5" width="120" height="61.5" as="geometry" />
        </mxCell>
        <mxCell id="187" value="January" style="swimlane;whiteSpace=wrap;fillColor=none;swimlaneFillColor=#BAC8D3;fontColor=#2F5B7C;fontFamily=Tahoma;html=1;strokeColor=none;opacity=50;connectable=0;allowArrows=0;editable=1;movable=0;resizable=1;rotatable=1;deletable=0;fixedWidth=1;pointerEvents=0;moveCells=0;container=0;" parent="1" vertex="1">
          <mxGeometry x="342" y="80.5" width="228.5" height="758" as="geometry">
            <mxRectangle x="20" y="20" width="80" height="23" as="alternateBounds" />
          </mxGeometry>
        </mxCell>
        <mxCell id="7W-krHmOCczphmB0Bt9z-201" value="" style="edgeStyle=orthogonalEdgeStyle;rounded=0;orthogonalLoop=1;jettySize=auto;html=1;" parent="1" source="8oFMMmD0dK8GUsLk8yxT-222" target="7W-krHmOCczphmB0Bt9z-198" edge="1">
          <mxGeometry relative="1" as="geometry">
            <mxPoint x="524" y="147.75862068965512" as="targetPoint" />
          </mxGeometry>
        </mxCell>
        <mxCell id="c3t_FQw8ndiGr6aB82j6-199" style="edgeStyle=orthogonalEdgeStyle;rounded=0;orthogonalLoop=1;jettySize=auto;html=1;exitX=1;exitY=0.5;exitDx=0;exitDy=0;entryX=0;entryY=0.5;entryDx=0;entryDy=0;" edge="1" parent="1" source="c3t_FQw8ndiGr6aB82j6-196" target="7W-krHmOCczphmB0Bt9z-198">
          <mxGeometry relative="1" as="geometry" />
        </mxCell>
        <mxCell id="c3t_FQw8ndiGr6aB82j6-200" style="edgeStyle=orthogonalEdgeStyle;rounded=0;orthogonalLoop=1;jettySize=auto;html=1;exitX=1;exitY=0.5;exitDx=0;exitDy=0;" edge="1" parent="1" source="7W-krHmOCczphmB0Bt9z-257" target="7W-krHmOCczphmB0Bt9z-198">
          <mxGeometry relative="1" as="geometry" />
        </mxCell>
        <mxCell id="7W-krHmOCczphmB0Bt9z-257" value=" validating the docs and making more" style="rounded=0;whiteSpace=wrap;html=1;fillColor=#3F593F;fontColor=#ffffff;strokeColor=#005700;" parent="1" vertex="1">
          <mxGeometry x="342" y="185" width="100" height="62" as="geometry" />
        </mxCell>
        <mxCell id="8oFMMmD0dK8GUsLk8yxT-222" value="Meta-T meta-G Pipeline fully documented" style="rounded=0;whiteSpace=wrap;html=1;strokeColor=#2F5B7C;fillColor=#7A3B5B;fontColor=#FCFCFC;" parent="1" vertex="1">
          <mxGeometry x="342" y="122.5" width="100" height="62.5" as="geometry" />
        </mxCell>
        <mxCell id="c3t_FQw8ndiGr6aB82j6-196" value="Snakemake, 16s, joiner, ... all docs located" style="rounded=0;whiteSpace=wrap;html=1;fillColor=#3F593F;fontColor=#ffffff;strokeColor=#005700;" vertex="1" parent="1">
          <mxGeometry x="342" y="247" width="100" height="65.5" as="geometry" />
        </mxCell>
        <mxCell id="7W-krHmOCczphmB0Bt9z-246" value="Profiling  wright up" style="rounded=0;whiteSpace=wrap;html=1;fillColor=#a20025;fontColor=#ffffff;strokeColor=#6F0000;" parent="1" vertex="1">
          <mxGeometry x="611" y="314" width="66" height="60" as="geometry" />
        </mxCell>
        <mxCell id="7W-krHmOCczphmB0Bt9z-247" value="usability wright up" style="rounded=0;whiteSpace=wrap;html=1;fillColor=#a20025;fontColor=#ffffff;strokeColor=#6F0000;" parent="1" vertex="1">
          <mxGeometry x="418.5" y="315" width="71" height="59" as="geometry" />
        </mxCell>
        <mxCell id="7W-krHmOCczphmB0Bt9z-252" value="" style="edgeStyle=orthogonalEdgeStyle;rounded=0;orthogonalLoop=1;jettySize=auto;html=1;" parent="1" source="7W-krHmOCczphmB0Bt9z-249" target="7W-krHmOCczphmB0Bt9z-246" edge="1">
          <mxGeometry relative="1" as="geometry" />
        </mxCell>
        <mxCell id="7W-krHmOCczphmB0Bt9z-249" value="Adjectives wright up" style="rounded=0;whiteSpace=wrap;html=1;fillColor=#a20025;fontColor=#ffffff;strokeColor=#6F0000;" parent="1" vertex="1">
          <mxGeometry x="530.5" y="315" width="67.5" height="59" as="geometry" />
        </mxCell>
        <mxCell id="7W-krHmOCczphmB0Bt9z-250" value="" style="edgeStyle=orthogonalEdgeStyle;rounded=0;orthogonalLoop=1;jettySize=auto;html=1;" parent="1" source="7W-krHmOCczphmB0Bt9z-247" target="7W-krHmOCczphmB0Bt9z-249" edge="1">
          <mxGeometry relative="1" as="geometry" />
        </mxCell>
        <mxCell id="c3t_FQw8ndiGr6aB82j6-207" style="edgeStyle=orthogonalEdgeStyle;rounded=0;orthogonalLoop=1;jettySize=auto;html=1;exitX=0.25;exitY=1;exitDx=0;exitDy=0;entryX=0.25;entryY=0;entryDx=0;entryDy=0;" edge="1" parent="1" source="c3t_FQw8ndiGr6aB82j6-203" target="8oFMMmD0dK8GUsLk8yxT-225">
          <mxGeometry relative="1" as="geometry" />
        </mxCell>
        <mxCell id="c3t_FQw8ndiGr6aB82j6-215" style="edgeStyle=orthogonalEdgeStyle;rounded=0;orthogonalLoop=1;jettySize=auto;html=1;exitX=0.5;exitY=1;exitDx=0;exitDy=0;entryX=0;entryY=0.75;entryDx=0;entryDy=0;" edge="1" parent="1" source="c3t_FQw8ndiGr6aB82j6-203" target="c3t_FQw8ndiGr6aB82j6-206">
          <mxGeometry relative="1" as="geometry" />
        </mxCell>
        <mxCell id="c3t_FQw8ndiGr6aB82j6-216" style="edgeStyle=orthogonalEdgeStyle;rounded=0;orthogonalLoop=1;jettySize=auto;html=1;exitX=1;exitY=0.5;exitDx=0;exitDy=0;" edge="1" parent="1" source="c3t_FQw8ndiGr6aB82j6-203" target="7W-krHmOCczphmB0Bt9z-229">
          <mxGeometry relative="1" as="geometry" />
        </mxCell>
        <mxCell id="c3t_FQw8ndiGr6aB82j6-217" style="edgeStyle=orthogonalEdgeStyle;rounded=0;orthogonalLoop=1;jettySize=auto;html=1;exitX=1;exitY=0.5;exitDx=0;exitDy=0;entryX=0;entryY=0.25;entryDx=0;entryDy=0;" edge="1" parent="1" source="c3t_FQw8ndiGr6aB82j6-203" target="7W-krHmOCczphmB0Bt9z-211">
          <mxGeometry relative="1" as="geometry" />
        </mxCell>
        <mxCell id="7W-krHmOCczphmB0Bt9z-198" value="Departure Docs Done" style="ellipse;whiteSpace=wrap;html=1;fillColor=#3F593F;fontColor=#ffffff;strokeColor=#005700;" parent="1" vertex="1">
          <mxGeometry x="820.25" y="163" width="120" height="80" as="geometry" />
        </mxCell>
        <mxCell id="7W-krHmOCczphmB0Bt9z-211" value="Probabilistic network graph adjectives" style="rounded=0;whiteSpace=wrap;html=1;strokeColor=#2F5B7C;fillColor=#2F5B7C;fontColor=#FCFCFC;" parent="1" vertex="1">
          <mxGeometry x="723" y="459.5" width="120" height="56" as="geometry" />
        </mxCell>
        <mxCell id="c3t_FQw8ndiGr6aB82j6-206" value="New tree algorithm" style="rounded=0;whiteSpace=wrap;html=1;strokeColor=#2F5B7C;fillColor=#2F5B7C;fontColor=#FCFCFC;" vertex="1" parent="1">
          <mxGeometry x="626.25" y="570" width="120" height="56" as="geometry" />
        </mxCell>
        <mxCell id="8oFMMmD0dK8GUsLk8yxT-225" value="New Config implimented" style="rounded=0;whiteSpace=wrap;html=1;strokeColor=#2F5B7C;fillColor=#2F5B7C;fontColor=#FCFCFC;deletable=0;" parent="1" vertex="1">
          <mxGeometry x="396.25" y="490" width="120" height="60" as="geometry" />
        </mxCell>
        <mxCell id="193" value="Febuary" style="swimlane;whiteSpace=wrap;fillColor=none;swimlaneFillColor=#BAC8D3;fontColor=#2F5B7C;fontFamily=Tahoma;html=1;strokeColor=none;opacity=25;connectable=0;allowArrows=0;movable=1;resizable=0;deletable=0;container=0;" parent="1" vertex="1">
          <mxGeometry x="571.5" y="80.5" width="229.5" height="758" as="geometry">
            <mxRectangle x="20" y="20" width="80" height="23" as="alternateBounds" />
          </mxGeometry>
        </mxCell>
        <mxCell id="7W-krHmOCczphmB0Bt9z-203" value="Flexible annotations trees and rules, validated in DRAM2" style="rounded=0;whiteSpace=wrap;html=1;strokeColor=#2F5B7C;fillColor=#2F5B7C;fontColor=#FCFCFC;deletable=0;" parent="193" vertex="1">
          <mxGeometry x="13.5" y="409.5" width="130" height="50.25" as="geometry" />
        </mxCell>
        <mxCell id="c3t_FQw8ndiGr6aB82j6-214" style="edgeStyle=orthogonalEdgeStyle;rounded=0;orthogonalLoop=1;jettySize=auto;html=1;exitX=0.5;exitY=1;exitDx=0;exitDy=0;entryX=0;entryY=0.25;entryDx=0;entryDy=0;" edge="1" parent="193" source="c3t_FQw8ndiGr6aB82j6-203" target="7W-krHmOCczphmB0Bt9z-203">
          <mxGeometry relative="1" as="geometry" />
        </mxCell>
        <mxCell id="c3t_FQw8ndiGr6aB82j6-203" value="DRAM2 Full Beta" style="rounded=0;whiteSpace=wrap;html=1;strokeColor=#2F5B7C;fillColor=#2F5B7C;fontColor=#FCFCFC;" vertex="1" parent="193">
          <mxGeometry x="-224" y="333.5" width="329.5" height="40" as="geometry" />
        </mxCell>
        <mxCell id="c3t_FQw8ndiGr6aB82j6-218" style="edgeStyle=orthogonalEdgeStyle;rounded=0;orthogonalLoop=1;jettySize=auto;html=1;exitX=1;exitY=0.5;exitDx=0;exitDy=0;" edge="1" parent="1" source="c3t_FQw8ndiGr6aB82j6-203" target="8oFMMmD0dK8GUsLk8yxT-230">
          <mxGeometry relative="1" as="geometry" />
        </mxCell>
      </root>
    </mxGraphModel>
  </diagram>
</mxfile>
